<?xml version="1.0" standalone="no"?>
<!DOCTYPE svg PUBLIC "-//W3C//DTD SVG 20010904//EN"
 "http://www.w3.org/TR/2001/REC-SVG-20010904/DTD/svg10.dtd">
<svg version="1.0" xmlns="http://www.w3.org/2000/svg"
 width="512.000000pt" height="512.000000pt" viewBox="0 0 512.000000 512.000000"
 preserveAspectRatio="xMidYMid meet">

<g transform="translate(0.000000,512.000000) scale(0.100000,-0.100000)"
fill="#000000" stroke="none">
<path d="M480 4560 l0 -80 -80 0 -80 0 0 -80 0 -80 80 0 80 0 0 -80 0 -80 160
0 160 0 0 -80 0 -80 160 0 160 0 0 -80 0 -80 160 0 160 0 0 -80 0 -80 80 0 80
0 0 -80 0 -80 160 0 160 0 0 -80 0 -80 320 0 320 0 0 80 0 80 160 0 160 0 0
80 0 80 80 0 80 0 0 80 0 80 160 0 160 0 0 80 0 80 160 0 160 0 0 80 0 80 160
0 160 0 0 80 0 80 80 0 80 0 0 80 0 80 -80 0 -80 0 0 80 0 80 -1760 0 -1760 0
0 -80z"/>
<path d="M160 2880 l0 -1120 80 0 80 0 0 -80 0 -80 80 0 80 0 0 -80 0 -80 960
0 960 0 0 320 0 320 80 0 80 0 0 160 0 160 80 0 80 0 0 80 0 80 80 0 80 0 0
80 0 80 80 0 80 0 0 80 0 80 160 0 160 0 0 80 0 80 480 0 480 0 0 480 0 480
-80 0 -80 0 0 -80 0 -80 -160 0 -160 0 0 -80 0 -80 -160 0 -160 0 0 -80 0 -80
-80 0 -80 0 0 -80 0 -80 -160 0 -160 0 0 -80 0 -80 -160 0 -160 0 0 -80 0 -80
-160 0 -160 0 0 -80 0 -80 -160 0 -160 0 0 80 0 80 -160 0 -160 0 0 80 0 80
-160 0 -160 0 0 80 0 80 -160 0 -160 0 0 80 0 80 -80 0 -80 0 0 80 0 80 -160
0 -160 0 0 80 0 80 -160 0 -160 0 0 80 0 80 -80 0 -80 0 0 -1120z"/>
<path d="M3520 2640 l0 -80 -160 0 -160 0 0 -80 0 -80 -80 0 -80 0 0 -80 0
-80 -80 0 -80 0 0 -160 0 -160 -80 0 -80 0 0 -320 0 -320 80 0 80 0 0 -160 0
-160 80 0 80 0 0 -80 0 -80 80 0 80 0 0 -80 0 -80 160 0 160 0 0 -80 0 -80
320 0 320 0 0 80 0 80 160 0 160 0 0 80 0 80 80 0 80 0 0 80 0 80 80 0 80 0 0
160 0 160 80 0 80 0 0 320 0 320 -80 0 -80 0 0 160 0 160 -80 0 -80 0 0 80 0
80 -80 0 -80 0 0 80 0 80 -160 0 -160 0 0 80 0 80 -320 0 -320 0 0 -80z m960
-720 l0 -160 -80 0 -80 0 0 -80 0 -80 -80 0 -80 0 0 -160 0 -160 -80 0 -80 0
0 -80 0 -80 -80 0 -80 0 0 -80 0 -80 -160 0 -160 0 0 80 0 80 -80 0 -80 0 0
80 0 80 -80 0 -80 0 0 160 0 160 160 0 160 0 0 -80 0 -80 160 0 160 0 0 160 0
160 80 0 80 0 0 80 0 80 80 0 80 0 0 80 0 80 160 0 160 0 0 -160z"/>
</g>
</svg>
