<?xml version="1.0" standalone="no"?>
<!DOCTYPE svg PUBLIC "-//W3C//DTD SVG 20010904//EN"
 "http://www.w3.org/TR/2001/REC-SVG-20010904/DTD/svg10.dtd">
<svg version="1.0" xmlns="http://www.w3.org/2000/svg"
 width="445.000000pt" height="445.000000pt" viewBox="0 0 445.000000 445.000000"
 preserveAspectRatio="xMidYMid meet">

<g transform="translate(0.000000,445.000000) scale(0.100000,-0.100000)"
fill="#000000" stroke="none">
<path d="M1640 4058 c-357 -33 -771 -161 -1067 -330 l-72 -41 146 -216 c81
-119 169 -248 196 -287 l49 -71 -96 -112 c-356 -412 -605 -882 -698 -1316 -30
-143 -33 -424 -6 -547 106 -475 508 -768 1191 -869 417 -61 983 -44 1348 42
460 107 775 334 908 654 60 143 75 230 75 425 0 143 -4 196 -23 290 -37 186
-111 394 -212 599 l-91 183 38 39 37 38 118 -158 c64 -88 126 -162 137 -165
10 -4 28 -3 38 1 10 4 141 117 289 252 149 136 277 252 286 258 14 11 13 -6
-7 -140 -35 -229 -33 -247 27 -262 17 -4 33 0 48 13 21 17 27 43 62 278 44
297 46 325 21 347 -12 11 -102 28 -299 58 -267 39 -284 41 -308 25 -34 -22
-35 -79 -2 -100 12 -9 102 -27 202 -41 99 -14 187 -29 196 -33 12 -5 -49 -66
-248 -247 -145 -132 -267 -241 -271 -243 -4 -1 -49 54 -100 122 -83 112 -92
127 -82 147 11 19 7 27 -37 71 -26 27 -79 77 -117 111 l-69 61 -69 -72 c-38
-40 -73 -72 -78 -70 -4 2 -39 44 -78 93 -38 50 -104 128 -146 174 -42 47 -76
89 -76 94 0 5 86 135 192 289 217 319 207 279 88 346 -95 53 -259 125 -395
172 -359 123 -708 170 -1045 138z m385 -208 c161 -15 496 -82 481 -97 -2 -2
-43 -10 -92 -19 -139 -24 -344 -71 -524 -119 -213 -58 -337 -71 -515 -56 -131
12 -324 46 -425 77 l-54 16 34 15 c83 35 274 97 383 123 247 61 485 81 712 60z
m822 -283 c-2 -7 -73 -112 -156 -233 l-150 -221 -73 -21 c-210 -61 -337 -82
-549 -89 -243 -9 -515 26 -704 90 l-70 24 -102 148 c-56 82 -101 150 -100 151
1 0 64 -11 140 -27 241 -49 448 -58 646 -28 36 6 148 32 250 60 229 61 480
113 671 138 181 24 204 25 197 8z m-1600 -702 c164 -43 327 -66 513 -72 285
-9 543 25 792 106 l118 39 85 -100 c47 -54 111 -133 142 -174 l56 -75 -73 -74
-74 -75 29 -30 29 -30 -132 -133 c-142 -144 -150 -160 -107 -202 43 -44 59
-36 199 110 l129 136 42 -41 41 -40 44 45 c24 25 47 45 50 45 10 0 124 -241
165 -348 19 -51 48 -143 64 -205 121 -470 21 -820 -294 -1034 -281 -190 -764
-288 -1331 -269 -624 21 -1023 146 -1254 393 -141 151 -200 311 -200 545 0
440 259 1007 682 1489 l58 67 64 -24 c36 -13 109 -35 163 -49z"/>
<path d="M1740 2415 l0 -55 -33 0 c-45 0 -133 -27 -183 -56 -60 -35 -141 -125
-170 -189 -118 -258 37 -549 320 -598 l66 -11 0 -214 0 -214 -37 7 c-75 14
-133 61 -165 133 -38 85 -124 105 -180 42 -37 -40 -36 -81 2 -157 58 -116 179
-203 316 -226 l64 -11 0 -48 0 -48 105 0 105 0 0 49 0 48 65 11 c285 47 441
348 315 608 -57 116 -199 218 -324 231 l-56 6 0 213 c0 239 -4 228 71 202 56
-19 97 -57 124 -114 40 -84 114 -109 174 -58 47 39 50 81 12 158 -58 119 -200
220 -325 233 l-56 6 0 53 0 54 -105 0 -105 0 0 -55z m0 -481 l0 -216 -37 7
c-80 15 -143 70 -169 148 -42 126 54 272 184 276 l22 1 0 -216z m308 -450
c182 -91 141 -361 -61 -399 l-37 -7 0 216 0 216 23 0 c13 0 46 -12 75 -26z"/>
</g>
</svg>
