<?xml version="1.0" standalone="no"?>
<!DOCTYPE svg PUBLIC "-//W3C//DTD SVG 20010904//EN"
 "http://www.w3.org/TR/2001/REC-SVG-20010904/DTD/svg10.dtd">
<svg version="1.0" xmlns="http://www.w3.org/2000/svg"
 width="512.000000pt" height="512.000000pt" viewBox="0 0 512.000000 512.000000"
 preserveAspectRatio="xMidYMid meet">

<g transform="translate(0.000000,512.000000) scale(0.100000,-0.100000)"
fill="#000000" stroke="none">
<path d="M2341 5110 c-630 -61 -1183 -325 -1616 -771 -685 -705 -902 -1720
-568 -2650 87 -244 262 -547 431 -749 170 -203 426 -426 647 -564 119 -74 364
-189 500 -235 152 -51 336 -95 490 -118 158 -22 513 -23 670 0 910 129 1648
688 2010 1522 93 213 150 412 187 650 27 178 30 527 5 700 -69 483 -262 927
-560 1288 -416 503 -982 818 -1637 912 -131 19 -434 27 -559 15z m536 -330
c608 -89 1137 -409 1501 -909 200 -273 331 -585 397 -946 27 -141 32 -480 10
-641 -60 -442 -238 -841 -525 -1176 -51 -60 -96 -108 -100 -108 -4 0 -22 40
-39 90 -80 222 -202 412 -381 590 -132 133 -237 211 -398 297 l-93 50 56 43
c130 101 258 263 341 435 74 154 104 275 111 450 6 160 -6 273 -43 403 -119
418 -490 755 -922 838 -410 78 -835 -56 -1111 -352 -160 -172 -272 -395 -312
-624 -17 -96 -17 -304 0 -400 28 -159 97 -332 188 -473 52 -81 208 -246 277
-293 l49 -33 -80 -39 c-253 -128 -513 -366 -655 -600 -57 -95 -127 -243 -153
-322 -10 -30 -21 -58 -24 -63 -18 -19 -242 266 -343 436 -207 346 -307 715
-308 1124 0 274 40 514 128 758 275 766 954 1331 1752 1459 141 23 139 23 350
24 148 2 227 -3 327 -18z m-106 -939 c307 -79 561 -349 625 -661 20 -100 15
-280 -10 -375 -77 -283 -315 -525 -598 -605 -94 -27 -263 -37 -364 -21 -363
59 -646 342 -705 706 -15 92 -7 264 17 350 85 316 373 573 699 626 78 12 251
2 336 -20z m4 -2046 c556 -90 982 -497 1070 -1022 l6 -41 -58 -40 c-340 -230
-808 -372 -1227 -372 -273 0 -555 53 -815 154 -115 45 -310 145 -407 209 l-71
47 9 53 c27 149 128 372 230 508 69 91 204 222 302 291 140 98 341 181 506
208 41 6 82 13 90 15 47 9 288 3 365 -10z"/>
</g>
</svg>
