<?xml version="1.0" standalone="no"?>
<!DOCTYPE svg PUBLIC "-//W3C//DTD SVG 20010904//EN"
 "http://www.w3.org/TR/2001/REC-SVG-20010904/DTD/svg10.dtd">
<svg version="1.0" xmlns="http://www.w3.org/2000/svg"
 width="512.000000pt" height="512.000000pt" viewBox="0 0 512.000000 512.000000"
 preserveAspectRatio="xMidYMid meet">

<g transform="translate(0.000000,512.000000) scale(0.100000,-0.100000)"
fill="#000000" stroke="none">
<path d="M1595 4030 c-249 -6 -263 -7 -338 -33 -189 -66 -239 -108 -436 -370
-206 -275 -337 -462 -589 -841 -212 -319 -232 -358 -232 -451 0 -111 30 -161
535 -885 144 -206 297 -427 340 -490 44 -63 98 -135 120 -159 54 -60 145 -117
224 -142 65 -20 90 -20 1446 -25 1470 -5 1673 -1 1789 36 97 30 171 105 206
205 l25 70 3 1335 c2 957 0 1357 -8 1414 -27 189 -96 272 -267 323 -53 16
-158 17 -1308 18 -687 1 -1367 -1 -1510 -5z m222 -1475 c195 -96 181 -366 -25
-452 -62 -26 -154 -20 -220 13 -214 110 -175 403 63 465 48 13 125 2 182 -26z
m1037 6 c47 -20 111 -87 132 -137 32 -76 12 -181 -47 -248 -95 -107 -267 -118
-374 -24 -58 51 -85 109 -85 181 0 190 194 308 374 228z m1056 -6 c57 -29 104
-82 125 -144 19 -56 19 -84 0 -147 -44 -149 -224 -221 -371 -149 -215 105
-177 404 61 466 48 13 132 1 185 -26z"/>
</g>
</svg>
