<?xml version="1.0" standalone="no"?>
<!DOCTYPE svg PUBLIC "-//W3C//DTD SVG 20010904//EN"
 "http://www.w3.org/TR/2001/REC-SVG-20010904/DTD/svg10.dtd">
<svg version="1.0" xmlns="http://www.w3.org/2000/svg"
 width="512.000000pt" height="512.000000pt" viewBox="0 0 512.000000 512.000000"
 preserveAspectRatio="xMidYMid meet">

<g transform="translate(0.000000,512.000000) scale(0.100000,-0.100000)"
fill="#000000" stroke="none">
<path d="M3143 5014 c-99 -49 -101 -205 -3 -255 23 -12 177 -38 460 -80 234
-34 429 -65 433 -69 4 -4 -260 -251 -589 -550 -328 -298 -599 -538 -603 -533
-3 5 -154 208 -334 452 -209 280 -339 447 -358 456 -38 20 -108 19 -140 -3
-15 -9 -345 -341 -734 -737 -502 -511 -712 -732 -726 -762 -36 -78 7 -169 92
-194 84 -26 60 -47 770 677 518 528 655 662 664 652 7 -7 153 -203 325 -436
172 -232 326 -434 342 -447 23 -19 41 -25 78 -25 27 0 56 3 66 7 9 3 301 264
647 580 347 315 632 571 634 569 2 -2 -21 -171 -52 -375 -30 -205 -55 -387
-55 -404 0 -18 9 -47 20 -65 60 -98 201 -94 252 8 18 36 188 1154 188 1235 0
45 -27 96 -64 120 -17 11 -211 44 -626 106 -331 49 -614 89 -628 89 -15 0 -42
-8 -59 -16z"/>
<path d="M1915 2794 c-44 -24 -74 -54 -98 -99 l-22 -40 -3 -1073 -2 -1073
-128 3 -127 3 -5 571 -5 571 -29 41 c-18 26 -47 51 -79 67 l-51 25 -468 0
c-511 0 -510 0 -572 -58 -16 -15 -37 -45 -47 -67 -17 -37 -19 -76 -19 -597 l0
-558 -82 0 c-98 0 -141 -20 -164 -77 -20 -47 -11 -95 26 -136 l28 -32 2349 -3
c2139 -3 2351 -1 2379 13 40 21 64 64 64 114 0 33 -7 49 -34 79 -34 37 -35 37
-125 40 l-91 4 0 921 c0 507 -4 939 -9 960 -13 54 -54 109 -104 138 l-42 24
-465 3 c-328 2 -477 0 -506 -9 -55 -15 -107 -59 -133 -112 -21 -43 -21 -50
-21 -985 l0 -942 -130 0 -130 0 0 1068 0 1068 -25 51 c-16 32 -41 61 -67 79
l-41 29 -496 2 c-438 2 -500 1 -526 -13z"/>
</g>
</svg>
