<?xml version="1.0" standalone="no"?>
<!DOCTYPE svg PUBLIC "-//W3C//DTD SVG 20010904//EN"
 "http://www.w3.org/TR/2001/REC-SVG-20010904/DTD/svg10.dtd">
<svg version="1.0" xmlns="http://www.w3.org/2000/svg"
 width="385.000000pt" height="512.000000pt" viewBox="0 0 385.000000 512.000000"
 preserveAspectRatio="xMidYMid meet">

<g transform="translate(0.000000,512.000000) scale(0.100000,-0.100000)"
fill="#000000" stroke="none">
<path d="M1200 4828 c-70 -48 -75 -62 -78 -243 l-3 -164 -347 -3 -347 -3 -52
-27 c-68 -36 -114 -78 -151 -136 -66 -104 -62 24 -62 -1901 0 -1116 4 -1761
10 -1789 26 -112 102 -207 205 -258 l60 -29 1485 0 1485 0 59 29 c79 39 140
102 179 184 l32 67 0 1790 0 1790 -23 57 c-30 75 -96 147 -174 189 l-63 34
-347 3 -347 3 -3 164 c-3 181 -8 195 -78 243 -66 45 -159 23 -214 -51 -19 -26
-21 -44 -24 -193 l-3 -164 -479 0 -479 0 -3 164 c-3 149 -5 167 -24 193 -35
48 -82 73 -134 73 -32 0 -57 -7 -80 -22z m-80 -760 c0 -23 9 -61 21 -84 27
-57 72 -84 139 -84 67 0 112 27 139 84 12 23 21 61 21 84 l0 42 480 0 480 0 0
-42 c0 -23 9 -61 21 -84 27 -57 72 -84 139 -84 67 0 112 27 139 84 12 23 21
61 21 84 l0 42 298 0 c253 0 301 -2 320 -16 l22 -15 0 -1733 c0 -1600 -1
-1735 -17 -1747 -24 -21 -2822 -21 -2846 0 -16 12 -17 147 -17 1747 l0 1733
22 15 c19 14 67 16 320 16 l298 0 0 -42z"/>
<path d="M989 3228 c-99 -57 -104 -202 -10 -265 l34 -23 907 0 907 0 33 23
c96 65 90 209 -10 266 -38 21 -39 21 -931 21 -891 0 -894 -1 -930 -22z"/>
<path d="M1016 2390 c-16 -5 -40 -19 -53 -32 -79 -73 -70 -186 20 -252 28 -21
36 -21 709 -24 673 -2 681 -2 724 19 57 27 84 72 84 139 0 67 -27 112 -84 139
-42 21 -54 21 -707 20 -365 0 -677 -5 -693 -9z"/>
<path d="M980 1518 c-96 -66 -90 -217 10 -268 38 -19 58 -20 508 -20 l469 0
33 23 c77 52 99 130 58 206 -45 83 -28 81 -569 81 l-476 0 -33 -22z"/>
</g>
</svg>
