<?xml version="1.0" standalone="no"?>
<!DOCTYPE svg PUBLIC "-//W3C//DTD SVG 20010904//EN"
 "http://www.w3.org/TR/2001/REC-SVG-20010904/DTD/svg10.dtd">
<svg version="1.0" xmlns="http://www.w3.org/2000/svg"
 width="512.000000pt" height="512.000000pt" viewBox="0 0 512.000000 512.000000"
 preserveAspectRatio="xMidYMid meet">

<g transform="translate(0.000000,512.000000) scale(0.100000,-0.100000)"
fill="#000000" stroke="none">
<path d="M480 4440 l0 -40 -80 0 -80 0 0 -40 0 -40 -80 0 -80 0 0 -80 0 -80
-40 0 -40 0 0 -80 0 -80 -40 0 -40 0 0 -1440 0 -1440 40 0 40 0 0 -80 0 -80
40 0 40 0 0 -80 0 -80 80 0 80 0 0 -40 0 -40 80 0 80 0 0 -40 0 -40 1240 0
1240 0 0 80 0 80 -120 0 -120 0 0 40 0 40 -80 0 -80 0 0 40 0 40 -40 0 -40 0
0 40 0 40 -960 0 -960 0 0 40 0 40 -40 0 -40 0 0 40 0 40 -40 0 -40 0 0 240 0
240 40 0 40 0 0 40 0 40 680 0 680 0 0 40 0 40 40 0 40 0 0 40 0 40 40 0 40 0
0 40 0 40 40 0 40 0 0 560 0 560 -40 0 -40 0 0 40 0 40 -40 0 -40 0 0 40 0 40
-40 0 -40 0 0 40 0 40 -680 0 -680 0 0 40 0 40 -40 0 -40 0 0 240 0 240 40 0
40 0 0 40 0 40 40 0 40 0 0 40 0 40 2000 0 2000 0 0 -40 0 -40 40 0 40 0 0
-40 0 -40 40 0 40 0 0 -760 0 -760 40 0 40 0 0 -40 0 -40 40 0 40 0 0 -40 0
-40 40 0 40 0 0 -40 0 -40 40 0 40 0 0 -40 0 -40 40 0 40 0 0 960 0 960 -40 0
-40 0 0 80 0 80 -40 0 -40 0 0 80 0 80 -80 0 -80 0 0 40 0 40 -80 0 -80 0 0
40 0 40 -2080 0 -2080 0 0 -40z m1040 -1520 l0 -40 40 0 40 0 0 -40 0 -40 40
0 40 0 0 -240 0 -240 -40 0 -40 0 0 -40 0 -40 -40 0 -40 0 0 -40 0 -40 -240 0
-240 0 0 40 0 40 -40 0 -40 0 0 40 0 40 -40 0 -40 0 0 240 0 240 40 0 40 0 0
40 0 40 40 0 40 0 0 40 0 40 240 0 240 0 0 -40z"/>
<path d="M3840 2520 l0 -40 -40 0 -40 0 0 -40 0 -40 -40 0 -40 0 0 -40 0 -40
-40 0 -40 0 0 -40 0 -40 -40 0 -40 0 0 -40 0 -40 -40 0 -40 0 0 -40 0 -40 -40
0 -40 0 0 -40 0 -40 -40 0 -40 0 0 -40 0 -40 -40 0 -40 0 0 -40 0 -40 -40 0
-40 0 0 -40 0 -40 -40 0 -40 0 0 -40 0 -40 -40 0 -40 0 0 -40 0 -40 -40 0 -40
0 0 -40 0 -40 -40 0 -40 0 0 -120 0 -120 280 0 280 0 0 -40 0 -40 40 0 40 0 0
-560 0 -560 80 0 80 0 0 -40 0 -40 360 0 360 0 0 40 0 40 40 0 40 0 0 40 0 40
40 0 40 0 0 560 0 560 320 0 320 0 0 80 0 80 -40 0 -40 0 0 40 0 40 -40 0 -40
0 0 40 0 40 -40 0 -40 0 0 40 0 40 -40 0 -40 0 0 40 0 40 -40 0 -40 0 0 40 0
40 -40 0 -40 0 0 40 0 40 -40 0 -40 0 0 40 0 40 -40 0 -40 0 0 40 0 40 -40 0
-40 0 0 40 0 40 -40 0 -40 0 0 40 0 40 -40 0 -40 0 0 40 0 40 -40 0 -40 0 0
40 0 40 -40 0 -40 0 0 40 0 40 -40 0 -40 0 0 40 0 40 -80 0 -80 0 0 -40z"/>
</g>
</svg>
